<svg xmlns="http://www.w3.org/2000/svg" viewBox="0 75 950 415" width="100%" height="100%">
<style>
.node { fill: #ffffff; stroke: #e2e8f0; stroke-width: 1px; }
.gateway { fill: #f1f5f9; stroke: #cbd5e1; stroke-width: 1px; }
.comp { fill: #ffffff; stroke: #e2e8f0; stroke-width: 1px; }
.line { fill: none; stroke: #cbd5e1; stroke-width: 2px; stroke-dasharray: 6 6; }
.title { font-family: -apple-system, sans-serif; fill: #0f172a; font-size: 34px; font-weight: 900; letter-spacing: -1px; text-anchor: middle; }
.subtitle { font-family: -apple-system, sans-serif; fill: #0f172a; font-size: 15px; font-weight: 500; letter-spacing: 4px; text-anchor: middle; }
.heading { font-family: -apple-system, sans-serif; fill: #64748b; font-size: 12px; font-weight: bold; letter-spacing: 1.5px; text-anchor: middle; }
.text { font-family: -apple-system, sans-serif; fill: #0f172a; font-size: 14px; font-weight: 600; dominant-baseline: central; }
.text-sm { font-family: -apple-system, sans-serif; fill: #64748b; font-size: 12px; font-weight: 600; text-anchor: middle; }
.icon { fill: none; stroke: #64748b; stroke-width: 2px; stroke-linecap: round; stroke-linejoin: round; }
</style>
<defs>
<filter id="shadow" x="-10%" y="-10%" width="120%" height="120%"><feDropShadow dx="0" dy="4" stdDeviation="4" flood-opacity="0.05"/></filter>
<g id="icon-client"><rect width="20" height="14" x="2" y="3" rx="2" class="icon"/><line x1="8" x2="16" y1="21" y2="21" class="icon"/><line x1="12" x2="12" y1="17" y2="21" class="icon"/></g>
<g id="icon-iot"><path d="m21 16-5.5 5.5A2.83 2.83 0 0 1 11.5 17.5L5 11 3 9v4l-2-2V7a2 2 0 0 1 2-2h4l2 2-4 2 6.5 6.5A2.83 2.83 0 0 1 16 21.5L21.5 16ZM20 6h2" class="icon"/><path d="M21 2v2" class="icon"/><path d="M16 2v2" class="icon"/><path d="M22 10h-2" class="icon"/></g>
<g id="icon-server"><rect width="20" height="8" x="2" y="2" rx="2" ry="2" class="icon"/><rect width="20" height="8" x="2" y="14" rx="2" ry="2" class="icon"/><line x1="6" x2="6.01" y1="6" y2="6" class="icon"/><line x1="6" x2="6.01" y1="18" y2="18" class="icon"/></g>
<g id="icon-auth"><path d="m15.5 7.5 2.3 2.3a1 1 0 0 0 1.4 0l2.1-2.1a1 1 0 0 0 0-1.4L19 4" class="icon"/><path d="m21 2-9.6 9.6" class="icon"/><circle cx="7.5" cy="15.5" r="5.5" class="icon"/></g>
<g id="icon-guard"><path d="M20 13c0 5-3.5 7.5-7.66 8.95a1 1 0 0 1-.67-.01C7.5 20.5 4 18 4 13V6a1 1 0 0 1 1-1c2-1 4-2 7-2 2.5 0 4.5.5 7 2a1 1 0 0 1 1 1z" class="icon"/><path d="m9 12 2 2 4-4" class="icon"/></g>
<g id="icon-cache"><ellipse cx="12" cy="5" rx="9" ry="3" class="icon"/><path d="M3 5V19A9 3 0 0 0 21 19V5" class="icon"/><path d="M3 12A9 3 0 0 0 21 12" class="icon"/></g>
<g id="icon-plugins"><rect width="7" height="7" x="14" y="3" rx="1" class="icon"/><path d="M10 21V8a1 1 0 0 0-1-1H4a1 1 0 0 0-1 1v12a1 1 0 0 0 1 1h12a1 1 0 0 0 1-1v-5a1 1 0 0 0-1-1H3" class="icon"/></g>
<g id="icon-metrics"><path d="M22 12h-2.48a2 2 0 0 0-1.93 1.46l-2.35 8.36a.25.25 0 0 1-.48 0L9.24 2.18a.25.25 0 0 0-.48 0l-2.35 8.36A2 2 0 0 1 4.48 12H2" class="icon"/></g>
<g id="icon-router"><circle cx="12" cy="4.5" r="2.5" class="icon"/><path d="m10.2 6.3-3.9 3.9" class="icon"/><circle cx="4.5" cy="12" r="2.5" class="icon"/><path d="M7 12h10" class="icon"/><circle cx="19.5" cy="12" r="2.5" class="icon"/><path d="m13.8 17.7 3.9-3.9" class="icon"/><circle cx="12" cy="19.5" r="2.5" class="icon"/></g>
<g id="icon-openai"><path fill="#000000" d="M22.2819 9.8211a5.9847 5.9847 0 0 0-.5157-4.9108 6.0462 6.0462 0 0 0-6.5098-2.9A6.0651 6.0651 0 0 0 4.9807 4.1818a5.9847 5.9847 0 0 0-3.9977 2.9 6.0462 6.0462 0 0 0 .7427 7.0966 5.98 5.98 0 0 0 .511 4.9107 6.051 6.051 0 0 0 6.5146 2.9001A5.9847 5.9847 0 0 0 13.2599 24a6.0557 6.0557 0 0 0 5.7718-4.2058 5.9894 5.9894 0 0 0 3.9977-2.9001 6.0557 6.0557 0 0 0-.7475-7.073zm-9.022 12.6081a4.4755 4.4755 0 0 1-2.8764-1.0408l.1419-.0804 4.7783-2.7582a.7948.7948 0 0 0 .3927-.6813v-6.7369l2.02 1.1686a.071.071 0 0 1 .038.052v5.5826a4.504 4.504 0 0 1-4.4945 4.4944zm-9.6607-4.1254a4.4708 4.4708 0 0 1-.5346-3.0137l.142.0852 4.783 2.7582a.7712.7712 0 0 0 .7806 0l5.8428-3.3685v2.3324a.0804.0804 0 0 1-.0332.0615L9.74 19.9502a4.4992 4.4992 0 0 1-6.1408-1.6464zM2.3408 7.8956a4.485 4.485 0 0 1 2.3655-1.9728V11.6a.7664.7664 0 0 0 .3879.6765l5.8144 3.3543-2.0201 1.1685a.0757.0757 0 0 1-.071 0l-4.8303-2.7865A4.504 4.504 0 0 1 2.3408 7.8956zm16.0993 3.8558L12.5973 8.3829a.0804.0804 0 0 1 .0332-.0615l4.8303-2.7866a4.504 4.504 0 0 1 2.3655 6.4674l-.142-.0805-4.783-2.7582a.7948.7948 0 0 0-.7806 0l-5.8428 3.3685v-2.3324l2.0201-1.1686a.071.071 0 0 1 .071 0l4.8303 2.7865a.0757.0757 0 0 1 .038.056v-.002zm-1.8841-8.3245a4.4708 4.4708 0 0 1 2.8954 1.0454l-.142.0804-4.783 2.7582a.7712.7712 0 0 0-.3927.6813v6.7369l-2.0201-1.1685a.071.071 0 0 1-.038-.052v-5.5826a4.504 4.504 0 0 1 4.4804-4.4985zM8.5878 3.2359a4.485 4.485 0 0 1 4.5086-.1846v5.6726a.7948.7948 0 0 0-.3927.6813L6.8893 12.76v-2.3324a.0804.0804 0 0 1 .0332-.0616l4.8303-2.7865a.0757.0757 0 0 1 .071 0l4.8303 2.7865a.071.071 0 0 1 .038.056v.002zM12 14.1622l-2.4335-1.4011V9.9545L12 8.5534l2.4335 1.4011v2.8066L12 14.1622z"/></g>
<g id="icon-anthropic"><path fill="#f59e0b" d="m17.067 21.053-4.267-11.626h-1.6l-4.267 11.626h1.707l1.066-2.986h4.587l1.067 2.986zm-5.227-4.373L13.44 12.213L15.04 16.68zM2.88 21.053v-1.6h2.24V11.88c0-2.347 1.493-4.16 3.947-4.16h3.413v1.6H9.067c-1.493 0-2.347 1.067-2.347 2.56v7.573h2.24v1.6z"/></g>
<g id="icon-gemini"><path fill="#8b5cf6" d="M12.435.086C12.333.029 12.185 0 12 0c-.185 0-.333.029-.435.086-.465.172-.895.545-1.125.86-1.577 2.378-3.04 4.87-4.675 7.192-1.004 1.433-2.267 2.608-3.931 3.238-.459.172-.89.545-1.119.86-.33.315-.33.86 0 1.203.459.172.89.545 1.119.86 1.664.63 2.927 1.805 3.931 3.238 1.635 2.32 3.098 4.814 4.675 7.192.23.315.66.688 1.125.86.102.057.25.086.435.086.185 0 .333-.029.435-.086.465-.172.895-.545 1.125-.86 1.577-2.378 3.04-4.87 4.675-7.192 1.004-1.433 2.267-2.608 3.931-3.238.459-.172.89-.545 1.119-.86.33-.315.33-.86 0-1.203-.459-.172-.89-.545-1.119-.86-1.664-.63-2.927-1.805-3.931-3.238-1.635-2.32-3.098-4.814-4.675-7.192-.23-.315-.66-.688-1.125-.86z"/></g>
<g id="icon-ollama"><path fill="#475569" d="M15.42 16.58A5.92 5.92 0 0 1 20 19v3H4v-3a5.92 5.92 0 0 1 4.58-2.42 5.92 5.92 0 0 1 6.84 0ZM14.4 3h1.8a5.4 5.4 0 0 1 5.4 5.4v3A2.4 2.4 0 0 1 19.2 13.8v.6a2.4 2.4 0 0 1-2.4 2.4h-9.6A2.4 2.4 0 0 1 4.8 14.4v-.6a2.4 2.4 0 0 1-2.4-2.4v-3A5.4 5.4 0 0 1 7.8 3h1.8A4.2 4.2 0 0 1 14.4 3ZM10.8 10.2H9l3-4.2V8.4h1.8L10.8 12.6v-2.4ZM7.8 8.4A1.8 1.8 0 1 0 7.8 4.8 1.8 1.8 0 0 0 7.8 8.4ZM16.2 8.4a1.8 1.8 0 1 0 0-3.6 1.8 1.8 0 0 0 0 3.6Z"/></g>
</defs>
<rect x="30" y="165" width="160" height="60" rx="10" class="node" filter="url(#shadow)" />
<use href="#icon-client" x="55" y="183" />
<text x="95" y="196" class="text" font-weight="700">Client App</text>
<rect x="30" y="245" width="160" height="60" rx="10" class="node" filter="url(#shadow)" />
<use href="#icon-iot" x="55" y="266" />
<text x="95" y="276" class="text">IoT Devices</text>
<rect x="30" y="325" width="160" height="60" rx="10" class="node" filter="url(#shadow)" />
<use href="#icon-server" x="55" y="346" />
<text x="95" y="356" class="text">Servers</text>
<rect x="250" y="80" width="460" height="390" rx="12" class="gateway" />
<text x="480.0" y="140" class="title">FERRO<tspan font-weight="300"> LABS</tspan></text>
<text x="480.0" y="165" class="subtitle">AI GATEWAY</text>
<rect x="450.0" y="180" width="60" height="4" rx="2" fill="#3b82f6"/>
<rect x="275" y="210" width="125" height="110" rx="8" class="comp" filter="url(#shadow)" />
<use href="#icon-auth" x="325.5" y="240" />
<text x="337.5" y="290" class="text-sm">Auth &amp; Keys</text>
<rect x="415" y="210" width="125" height="110" rx="8" class="comp" filter="url(#shadow)" />
<use href="#icon-guard" x="465.5" y="240" />
<text x="477.5" y="290" class="text-sm">Guardrails</text>
<rect x="555" y="210" width="125" height="110" rx="8" class="comp" filter="url(#shadow)" />
<use href="#icon-cache" x="605.5" y="240" />
<text x="617.5" y="290" class="text-sm">Cache</text>
<rect x="275" y="335" width="125" height="110" rx="8" class="comp" filter="url(#shadow)" />
<use href="#icon-plugins" x="325.5" y="365" />
<text x="337.5" y="415" class="text-sm">Plugins</text>
<rect x="415" y="335" width="125" height="110" rx="8" class="comp" filter="url(#shadow)" />
<use href="#icon-metrics" x="465.5" y="365" />
<text x="477.5" y="415" class="text-sm">Metrics</text>
<rect x="555" y="335" width="125" height="110" rx="8" class="comp" filter="url(#shadow)" />
<use href="#icon-router" x="605.5" y="365" />
<text x="617.5" y="415" class="text-sm">Router</text>
<text x="835" y="115" class="heading">LLM APIs</text>
<rect x="760" y="130" width="160" height="60" rx="10" class="node" filter="url(#shadow)" />
<use href="#icon-openai" x="780" y="148" />
<text x="825" y="161" class="text" font-weight="700">OpenAI</text>
<rect x="760" y="210" width="160" height="60" rx="10" class="node" filter="url(#shadow)" />
<use href="#icon-anthropic" x="780" y="228" />
<text x="825" y="241" class="text" font-weight="700">Anthropic</text>
<rect x="760" y="290" width="160" height="60" rx="10" class="node" filter="url(#shadow)" />
<use href="#icon-gemini" x="780" y="308" />
<text x="825" y="321" class="text" font-weight="700">Gemini</text>
<rect x="760" y="370" width="160" height="60" rx="10" class="node" filter="url(#shadow)" />
<use href="#icon-ollama" x="780" y="388" />
<text x="825" y="401" class="text" font-weight="700">Ollama</text>
<path id="path-client" d="M 190 195 C 220.0 195, 220.0 275.0, 250 275.0" class="line" />
<path id="path-iot" d="M 190 275 C 220.0 275, 220.0 275.0, 250 275.0" class="line" />
<path id="path-server" d="M 190 355 C 220.0 355, 220.0 275.0, 250 275.0" class="line" />
<path id="path-openai" d="M 710 275.0 C 735.0 275.0, 735.0 160, 760 160" class="line" />
<path id="path-anth" d="M 710 275.0 C 735.0 275.0, 735.0 240, 760 240" class="line" />
<path id="path-gemini" d="M 710 275.0 C 735.0 275.0, 735.0 320, 760 320" class="line" />
<path id="path-ollama" d="M 710 275.0 C 735.0 275.0, 735.0 400, 760 400" class="line" />
<path id="path-client-back" d="M 250 275.0 C 220.0 275.0, 220.0 195, 190 195" fill="none" />
<path id="path-iot-back" d="M 250 275.0 C 220.0 275.0, 220.0 275, 190 275" fill="none" />
<path id="path-server-back" d="M 250 275.0 C 220.0 275.0, 220.0 355, 190 355" fill="none" />
<path id="path-openai-back" d="M 760 160 C 735.0 160, 735.0 275.0, 710 275.0" fill="none" />
<path id="path-anth-back" d="M 760 240 C 735.0 240, 735.0 275.0, 710 275.0" fill="none" />
<path id="path-gemini-back" d="M 760 320 C 735.0 320, 735.0 275.0, 710 275.0" fill="none" />
<path id="path-ollama-back" d="M 760 400 C 735.0 400, 735.0 275.0, 710 275.0" fill="none" />
<circle r="7" fill="#10b981" opacity="0">
  <animateMotion id="m1" dur="1s" begin="0s; m16.end"><mpath href="#path-client"/></animateMotion>
  <animate attributeName="opacity" values="0;1;1;0;0" keyTimes="0;0.05;0.95;0.99;1" dur="1s" begin="0s; m16.end" />
</circle>
<circle r="7" fill="#10b981" opacity="0">
  <animateMotion id="m2" dur="1s" begin="m1.end + 0.5s"><mpath href="#path-openai"/></animateMotion>
  <animate attributeName="opacity" values="0;1;1;0;0" keyTimes="0;0.05;0.95;0.99;1" dur="1s" begin="m1.end + 0.5s" />
</circle>
<circle r="7" fill="#10b981" opacity="0">
  <animateMotion id="m3" dur="1s" begin="m2.end + 0.5s"><mpath href="#path-openai-back"/></animateMotion>
  <animate attributeName="opacity" values="0;1;1;0;0" keyTimes="0;0.05;0.95;0.99;1" dur="1s" begin="m2.end + 0.5s" />
</circle>
<circle r="7" fill="#10b981" opacity="0">
  <animateMotion id="m4" dur="1s" begin="m3.end + 0.5s"><mpath href="#path-client-back"/></animateMotion>
  <animate attributeName="opacity" values="0;1;1;0;0" keyTimes="0;0.05;0.95;0.99;1" dur="1s" begin="m3.end + 0.5s" />
</circle>
<circle r="7" fill="#f59e0b" opacity="0">
  <animateMotion id="m5" dur="1s" begin="m4.end + 0.5s"><mpath href="#path-iot"/></animateMotion>
  <animate attributeName="opacity" values="0;1;1;0;0" keyTimes="0;0.05;0.95;0.99;1" dur="1s" begin="m4.end + 0.5s" />
</circle>
<circle r="7" fill="#f59e0b" opacity="0">
  <animateMotion id="m6" dur="1s" begin="m5.end + 0.5s"><mpath href="#path-anth"/></animateMotion>
  <animate attributeName="opacity" values="0;1;1;0;0" keyTimes="0;0.05;0.95;0.99;1" dur="1s" begin="m5.end + 0.5s" />
</circle>
<circle r="7" fill="#f59e0b" opacity="0">
  <animateMotion id="m7" dur="1s" begin="m6.end + 0.5s"><mpath href="#path-anth-back"/></animateMotion>
  <animate attributeName="opacity" values="0;1;1;0;0" keyTimes="0;0.05;0.95;0.99;1" dur="1s" begin="m6.end + 0.5s" />
</circle>
<circle r="7" fill="#f59e0b" opacity="0">
  <animateMotion id="m8" dur="1s" begin="m7.end + 0.5s"><mpath href="#path-iot-back"/></animateMotion>
  <animate attributeName="opacity" values="0;1;1;0;0" keyTimes="0;0.05;0.95;0.99;1" dur="1s" begin="m7.end + 0.5s" />
</circle>
<circle r="7" fill="#8b5cf6" opacity="0">
  <animateMotion id="m9" dur="1s" begin="m8.end + 0.5s"><mpath href="#path-server"/></animateMotion>
  <animate attributeName="opacity" values="0;1;1;0;0" keyTimes="0;0.05;0.95;0.99;1" dur="1s" begin="m8.end + 0.5s" />
</circle>
<circle r="7" fill="#8b5cf6" opacity="0">
  <animateMotion id="m10" dur="1s" begin="m9.end + 0.5s"><mpath href="#path-gemini"/></animateMotion>
  <animate attributeName="opacity" values="0;1;1;0;0" keyTimes="0;0.05;0.95;0.99;1" dur="1s" begin="m9.end + 0.5s" />
</circle>
<circle r="7" fill="#8b5cf6" opacity="0">
  <animateMotion id="m11" dur="1s" begin="m10.end + 0.5s"><mpath href="#path-gemini-back"/></animateMotion>
  <animate attributeName="opacity" values="0;1;1;0;0" keyTimes="0;0.05;0.95;0.99;1" dur="1s" begin="m10.end + 0.5s" />
</circle>
<circle r="7" fill="#8b5cf6" opacity="0">
  <animateMotion id="m12" dur="1s" begin="m11.end + 0.5s"><mpath href="#path-server-back"/></animateMotion>
  <animate attributeName="opacity" values="0;1;1;0;0" keyTimes="0;0.05;0.95;0.99;1" dur="1s" begin="m11.end + 0.5s" />
</circle>
<circle r="7" fill="#475569" opacity="0">
  <animateMotion id="m13" dur="1s" begin="m12.end + 0.5s"><mpath href="#path-client"/></animateMotion>
  <animate attributeName="opacity" values="0;1;1;0;0" keyTimes="0;0.05;0.95;0.99;1" dur="1s" begin="m12.end + 0.5s" />
</circle>
<circle r="7" fill="#475569" opacity="0">
  <animateMotion id="m14" dur="1s" begin="m13.end + 0.5s"><mpath href="#path-ollama"/></animateMotion>
  <animate attributeName="opacity" values="0;1;1;0;0" keyTimes="0;0.05;0.95;0.99;1" dur="1s" begin="m13.end + 0.5s" />
</circle>
<circle r="7" fill="#475569" opacity="0">
  <animateMotion id="m15" dur="1s" begin="m14.end + 0.5s"><mpath href="#path-ollama-back"/></animateMotion>
  <animate attributeName="opacity" values="0;1;1;0;0" keyTimes="0;0.05;0.95;0.99;1" dur="1s" begin="m14.end + 0.5s" />
</circle>
<circle r="7" fill="#475569" opacity="0">
  <animateMotion id="m16" dur="1s" begin="m15.end + 0.5s"><mpath href="#path-client-back"/></animateMotion>
  <animate attributeName="opacity" values="0;1;1;0;0" keyTimes="0;0.05;0.95;0.99;1" dur="1s" begin="m15.end + 0.5s" />
</circle>
</svg>
